<svg width="17" height="17" viewBox="0 0 17 17" fill="none" xmlns="http://www.w3.org/2000/svg">
<path d="M14.2039 2.01316H11.1842V1.67763C11.1842 0.752586 10.4316 0 9.50658 0H7.49342C6.56838 0 5.81579 0.752586 5.81579 1.67763V2.01316H2.79605C2.61808 2.01316 2.44739 2.08386 2.32155 2.2097C2.1957 2.33555 2.125 2.50624 2.125 2.68421V3.69079C2.125 3.86876 2.1957 4.03945 2.32155 4.1653C2.44739 4.29114 2.61808 4.36184 2.79605 4.36184H14.2039C14.3819 4.36184 14.5526 4.29114 14.6785 4.1653C14.8043 4.03945 14.875 3.86876 14.875 3.69079V2.68421C14.875 2.50624 14.8043 2.33555 14.6785 2.2097C14.5526 2.08386 14.3819 2.01316 14.2039 2.01316ZM7.15789 1.67763C7.15789 1.49276 7.30855 1.34211 7.49342 1.34211H9.50658C9.69145 1.34211 9.84211 1.49276 9.84211 1.67763V2.01316H7.15789V1.67763ZM13.9624 5.25266C13.8995 5.18347 13.8228 5.12818 13.7373 5.09033C13.6518 5.05249 13.5593 5.03292 13.4658 5.03289H3.53421C3.44069 5.03294 3.34822 5.05252 3.26271 5.09038C3.1772 5.12824 3.10054 5.18355 3.03765 5.25276C2.97476 5.32197 2.92702 5.40355 2.89749 5.49229C2.86796 5.58102 2.8573 5.67494 2.86618 5.76803L3.6909 14.387C3.78451 15.3668 4.64648 16.1056 5.69601 16.1056H11.304C12.3532 16.1056 13.2155 15.3668 13.3091 14.387L14.1338 5.76803C14.1427 5.67492 14.1321 5.58098 14.1026 5.49223C14.073 5.40347 14.0253 5.32188 13.9624 5.25266ZM6.93175 14.4263C6.91732 14.427 6.90323 14.4276 6.8888 14.4276C6.71826 14.4275 6.55419 14.3624 6.42992 14.2456C6.30565 14.1288 6.23051 13.9691 6.21976 13.7989L5.81713 7.42386C5.80601 7.24626 5.86585 7.07151 5.9835 6.93801C6.10115 6.80451 6.26698 6.72317 6.44457 6.71187C6.62208 6.70111 6.79662 6.76107 6.93005 6.87865C7.06347 6.99623 7.1449 7.16185 7.15655 7.3393L7.55918 13.7143C7.5703 13.8919 7.51047 14.0666 7.39282 14.2001C7.27517 14.3337 7.10933 14.415 6.93175 14.4263ZM10.7802 13.7989C10.7751 13.8871 10.7526 13.9735 10.714 14.0531C10.6754 14.1326 10.6215 14.2037 10.5553 14.2624C10.4891 14.321 10.412 14.366 10.3284 14.3947C10.2447 14.4234 10.1563 14.4353 10.068 14.4298C9.97979 14.4242 9.89352 14.4013 9.81417 14.3622C9.73483 14.3232 9.66398 14.2689 9.6057 14.2024C9.54741 14.1359 9.50284 14.0586 9.47455 13.9748C9.44625 13.891 9.43479 13.8025 9.44082 13.7143L9.84345 7.3393C9.85554 7.16235 9.9372 6.99737 10.0706 6.88045C10.204 6.76353 10.3782 6.70416 10.5552 6.71534C10.7322 6.72651 10.8976 6.80732 11.0152 6.94008C11.1329 7.07285 11.1931 7.24678 11.1829 7.42386L10.7802 13.7989Z" fill="#020202"/>
</svg>
