<svg width="16" height="16" viewBox="0 0 16 16" fill="none" xmlns="http://www.w3.org/2000/svg">
<path d="M14.6659 7.33331H2.94187L6.47054 3.80464C6.53421 3.74314 6.585 3.66958 6.61994 3.58824C6.65488 3.50691 6.67327 3.41943 6.67404 3.33091C6.67481 3.24239 6.65794 3.1546 6.62442 3.07267C6.5909 2.99074 6.5414 2.9163 6.4788 2.85371C6.41621 2.79111 6.34177 2.74161 6.25984 2.70809C6.17791 2.67457 6.09013 2.6577 6.00161 2.65847C5.91309 2.65924 5.82561 2.67763 5.74427 2.71257C5.66293 2.74751 5.58937 2.7983 5.52787 2.86197L0.861207 7.52864C0.736226 7.65366 0.666016 7.8232 0.666016 7.99997C0.666016 8.17675 0.736226 8.34629 0.861207 8.47131L5.52787 13.138C5.65361 13.2594 5.82201 13.3266 5.99681 13.3251C6.17161 13.3236 6.33881 13.2535 6.46242 13.1299C6.58602 13.0062 6.65614 12.839 6.65766 12.6642C6.65917 12.4894 6.59198 12.321 6.47054 12.1953L2.94187 8.66664H14.6659C14.8427 8.66664 15.0123 8.5964 15.1373 8.47138C15.2623 8.34635 15.3325 8.17678 15.3325 7.99997C15.3325 7.82316 15.2623 7.65359 15.1373 7.52857C15.0123 7.40354 14.8427 7.33331 14.6659 7.33331Z" fill="white"/>
</svg>
