<svg width="14" height="15" viewBox="0 0 14 15" fill="none" xmlns="http://www.w3.org/2000/svg">
<path d="M7.57121 2.32196L8.87205 4.93006C8.96586 5.11979 9.14887 5.25182 9.36116 5.28292L12.275 5.70738C12.4463 5.7314 12.6008 5.82153 12.7044 5.95782C12.8079 6.0941 12.8519 6.26531 12.8266 6.43355C12.8064 6.57301 12.7407 6.70223 12.6393 6.80176L10.5267 8.84733C10.372 8.99194 10.3016 9.20332 10.3394 9.40986L10.8597 12.289C10.9172 12.6334 10.6874 12.9609 10.3394 13.0305C10.197 13.0529 10.051 13.0296 9.92313 12.964L7.32145 11.6088C7.12878 11.5115 6.90013 11.5115 6.70746 11.6088L4.10579 12.964C3.78532 13.1345 3.38496 13.0178 3.21082 12.7032C3.14483 12.5773 3.12115 12.4341 3.14317 12.2941L3.66351 9.41497C3.7013 9.20843 3.63091 8.99706 3.47619 8.85244L1.36363 6.80687C1.23969 6.68675 1.16992 6.52281 1.16992 6.35173C1.16992 6.18066 1.23969 6.01672 1.36363 5.89659C1.46347 5.795 1.59567 5.73004 1.73827 5.71249L4.65214 5.28804C4.86443 5.25694 5.04744 5.12491 5.14125 4.93517L6.39526 2.32196C6.50492 2.09905 6.73656 1.95926 6.98844 1.96398H7.06649C7.28568 1.99131 7.47576 2.12613 7.57121 2.32196Z" fill="#F6812C"/>
<path d="M7.00708 11.5334C6.89312 11.5326 6.78595 11.5702 6.68456 11.6213L4.0911 12.9732C3.78005 13.1299 3.38508 13.004 3.21384 12.7045C3.14756 12.5805 3.12384 12.4388 3.1462 12.3005L3.66653 9.42645C3.70147 9.21857 3.63164 9.00695 3.47921 8.8588L1.36145 6.81323C1.10608 6.56171 1.10608 6.15448 1.36145 5.90295C1.46134 5.80426 1.59085 5.73972 1.73089 5.71885L4.65517 5.28928C4.88051 5.25657 5.04158 5.13198 5.14428 4.93642L6.41465 2.29325C6.51146 2.07823 6.83694 1.92964 7.01228 1.96523C7.00708 2.1391 7.00708 11.4158 7.00708 11.5334Z" fill="#F6812C"/>
</svg>
